<?xml version="1.0" encoding="UTF-8"?>
<!DOCTYPE svg PUBLIC "-//W3C//DTD SVG 1.1//EN" "http://www.w3.org/Graphics/SVG/1.1/DTD/svg11.dtd">
<!-- Creator: CorelDRAW 2019 (64-Bit) -->
<svg xmlns="http://www.w3.org/2000/svg" xml:space="preserve" width="2.1248mm" height="2.1248mm" version="1.1" style="shape-rendering:geometricPrecision; text-rendering:geometricPrecision; image-rendering:optimizeQuality; fill-rule:evenodd; clip-rule:evenodd"
viewBox="0 0 4.62 4.62"
 xmlns:xlink="http://www.w3.org/1999/xlink">
 <defs>
  <style type="text/css">
   <![CDATA[
    .fil0 {fill:none}
    .fil1 {fill:#232484;fill-rule:nonzero}
   ]]>
  </style>
 </defs>
 <g id="图层_x0020_1">
  <metadata id="CorelCorpID_0Corel-Layer"/>
  <rect class="fil0" width="4.62" height="4.62"/>
  <path class="fil1" d="M3.4 3.32c-0.22,0 -0.44,0.02 -0.66,0.02 -0.14,0.62 -1.34,0.44 -1.2,-0.34 0.06,-0.46 0.7,-0.66 1.08,-0.32 0.08,0.1 0.12,0.18 0.16,0.38 0.2,0 0.44,-0.02 0.64,-0.02 0,-1 -1.12,-1.5 -1.97,-1.02 -0.82,0.46 -0.72,1.89 0.14,2.23l0 0.02c-0.46,0 -0.98,-0.36 -1.08,-0.8l0 -2.31c0.36,-0.26 0.78,-0.56 1.14,-0.8 0.02,0 0.02,0.02 0.04,0.02 -0.02,0.34 0,0.92 0.02,1.34 0.24,-0.22 0.38,-0.46 0.78,-0.54 0.26,-0.06 0.5,-0.02 0.66,0.04 1.16,0.4 1.24,1.91 0.24,2.43 -0.02,0 -0.08,0.04 -0.1,0.06l0.04 -0.08c0,-0.08 0.02,-0.2 0.06,-0.3z"/>
 </g>
</svg>
