<?xml version="1.0" encoding="UTF-8"?>
<!DOCTYPE svg PUBLIC "-//W3C//DTD SVG 1.1//EN" "http://www.w3.org/Graphics/SVG/1.1/DTD/svg11.dtd">
<!-- Creator: CorelDRAW 2019 (64-Bit) -->
<svg xmlns="http://www.w3.org/2000/svg" xml:space="preserve" width="2.1248mm" height="2.1248mm" version="1.1" style="shape-rendering:geometricPrecision; text-rendering:geometricPrecision; image-rendering:optimizeQuality; fill-rule:evenodd; clip-rule:evenodd"
viewBox="0 0 4.18 4.18"
 xmlns:xlink="http://www.w3.org/1999/xlink">
 <defs>
  <style type="text/css">
   <![CDATA[
    .fil0 {fill:none}
    .fil1 {fill:#01458C;fill-rule:nonzero}
   ]]>
  </style>
 </defs>
 <g id="图层_x0020_1">
  <metadata id="CorelCorpID_0Corel-Layer"/>
  <rect class="fil0" width="4.18" height="4.18"/>
  <path class="fil1" d="M2.59 1.76c0.23,-0.18 0.47,-0.17 0.56,-0.16 -0.03,-0.1 -0.19,-0.43 -0.64,-0.43 -0.26,0 -0.43,0.14 -0.52,0.25 -0.11,0.14 -0.15,0.29 -0.15,0.38 -0.03,0.4 -0.25,0.59 -0.27,0.61 -0.24,0.19 -0.47,0.17 -0.56,0.15 0.05,0.1 0.2,0.44 0.65,0.43 0.18,-0.01 0.34,-0.08 0.47,-0.21 0.15,-0.15 0.18,-0.38 0.19,-0.45 0.03,-0.33 0.19,-0.51 0.26,-0.56zm1.14 -0.64c0,-0.08 -0.06,-0.12 -0.06,-0.12l-0.35 -0.27c0,0 -0.07,-0.06 -0.07,0.03l0 1.11c0,0.08 -0.02,0.33 -0.24,0.51 -0.26,0.21 -0.53,0.2 -0.62,0.18 0.05,0.1 0.24,0.43 0.68,0.43 0.4,0 0.67,-0.35 0.67,-0.68l0 -1.19 -0.01 0zm-2.57 0.67c0.26,-0.21 0.53,-0.2 0.62,-0.18 -0.05,-0.1 -0.24,-0.43 -0.68,-0.43 -0.4,0 -0.67,0.35 -0.67,0.68l0 1.22c0,0.08 0.06,0.12 0.06,0.12l0.35 0.27c0,0 0.07,0.06 0.07,-0.03l0 -1.14c0.02,-0.08 0.03,-0.33 0.25,-0.51z"/>
 </g>
</svg>
