<?xml version="1.0" encoding="UTF-8"?>
<!DOCTYPE svg PUBLIC "-//W3C//DTD SVG 1.1//EN" "http://www.w3.org/Graphics/SVG/1.1/DTD/svg11.dtd">
<!-- Creator: CorelDRAW -->
<svg xmlns="http://www.w3.org/2000/svg" xml:space="preserve" width="2.0098mm" height="2.0135mm" style="shape-rendering:geometricPrecision; text-rendering:geometricPrecision; image-rendering:optimizeQuality; fill-rule:evenodd; clip-rule:evenodd"
viewBox="0 0 0.315206 0.315786"
 xmlns:xlink="http://www.w3.org/1999/xlink">
 <defs>
  <style type="text/css">
   <![CDATA[
    .fil0 {fill:#519075;fill-rule:nonzero}
   ]]>
  </style>
 </defs>
 <g id="图层_x0020_1">
  <metadata id="CorelCorpID_0Corel-Layer"/>
  <path class="fil0" d="M0.143127 0.000768488l0.00737121 -0.000768488 0.0145856 0 0.00661841 0.000768488 0 0.0967354 -0.000564603 0.000564603 -0.000752805 0.00133309 -0.000752805 0 -0.000580287 0.000564603 -0.00207021 0.000564603 -0.0185535 0 -0.00189769 -0.000564603 -0.000752805 -0.000564603 -0.00133309 0 0 -0.00133309 -0.000564603 -0.000564603 -0.000564603 -0.0026505 0 -0.0940849 -0.000188201 0zm0.0670153 0.156364l0 0.0471444 -0.000580287 0.00131741 -0.000752805 0.000768488 -0.000564603 0.00131741 -0.00131741 0 -0.00133309 0.000752805 -0.0026505 0.000580287 -0.0278224 0 0 0.074214 0.0058656 -0.00133309 0.0060538 -0.000564603 0.005301 -0.00189769 0.005301 -0.00131741 0.0026505 -0.000580287 0.0026505 -0.00131741 0.005301 -0.00189769 0.005301 -0.0026505 0.0047364 -0.0026505 0.005301 -0.0026505 0.00454819 -0.0026505 0.00396791 -0.0032151 0.0047364 -0.0034033 0.0087043 -0.00738689 0.00398359 -0.00398359 0.0034033 -0.00396791 0.00396791 -0.00454819 0.00341899 -0.00396791 0.0034033 -0.00454819 0.0026505 -0.0047364 0.0026505 -0.005301 0.0026505 -0.0047364 0.0026505 -0.00528532 0.00189769 -0.00531668 0.0034033 -0.010602 0.00189769 -0.005301 0.000564603 -0.0060538 0.00131741 -0.005301 0.000768488 -0.0058656 0.000564603 -0.0119194 -0.000564603 -0.00928459 -0.000768488 -0.0047364 0 -0.00472071 -0.00207021 -0.00928459 -0.0026505 -0.00926891 -0.00133309 -0.00398359 -0.00131741 -0.00396791 -0.00323079 -0.00853179 -0.00453251 -0.0079515 -0.00398359 -0.0079515 -0.005301 -0.00661841 -0.0060538 -0.00738689 -0.0060538 -0.00661841 -0.00663409 -0.00606949 -0.00661841 -0.005301 -0.00738689 -0.005301 -0.0079515 -0.00472071 -0.0079515 -0.00398359 0 0.108859 -0.000564603 0.00133309 -0.000752805 0.000752805 -0.000580287 0.00131741 -0.00131741 0.000768488 -0.00133309 0 -0.0026505 0.000564603 -0.0393811 0 -0.000752805 0.000564603 -0.000564603 0.000752805 0 -0.0456231 0.000564603 -0.00131741 0.000752805 -0.00133309 0.00133309 -0.000564603 0.0179889 0 0.0026505 -0.000752805 0.0020859 -0.000768488 0.00131741 -0.000752805 0.00133309 -0.00189769 0 -0.100891 0.0132525 0.00396791 0.00661841 0.0020859 0.0060538 0.00189769 0.00663409 0.00263482 0.0058656 0.00341899 0.0060538 0.0026505 0.005301 0.0034033 0.00606949 0.00396791 0.005301 0.00323079 0.00528532 0.00396791 0.00454819 0.00454819 0.005301 0.0047364 0.0047364 0.00453251 0.0085161 0.00928459 0.00398359 0.005301 0.00396791 0.005301 0.0032151 0.0058656 0.00341899 0.005301 0.00661841 0.0119351 0.0026505 0.0060538 0.0020859 0.00661841 0.00396791 0.0126879 0.00189769 0.00663409 0.00133309 0.00661841 0.000752805 0.00663409 0.00131741 0.00737121 0 0.0219725 -0.000564603 0.0079515 -0.000564603 0.0079515 -0.00133309 0.00793581 -0.00207021 0.00740258 -0.00189769 0.00793581 -0.0026505 0.00719869 -0.0026505 0.00661841 -0.0032151 0.00719869 -0.00341899 0.00663409 -0.00396791 0.00661841 -0.00398359 0.00663409 -0.00472071 0.0058656 -0.0047364 0.0058656 -0.0047364 0.0060538 -0.010602 0.010602 -0.0121233 0.00909639 -0.00603812 0.0047364 -0.00663409 0.00396791 -0.00663409 0.00398359 -0.00661841 0.0032151 -0.00719869 0.0032151 -0.00661841 0.0026505 -0.00796718 0.0026505 -0.00718301 0.0020859 -0.00738689 0.0020859 -0.0079515 0.00131741 -0.0079515 0.000752805 -0.0079515 0.000580287 -0.0079515 0.000752805 -0.0079515 -0.000752805 -0.0079515 -0.000580287 -0.0079515 -0.000752805 -0.0079515 -0.00131741 -0.0079515 -0.0020859 -0.00738689 -0.0020859 -0.0147581 -0.005301 -0.00663409 -0.0032151 -0.00661841 -0.0032151 -0.00663409 -0.00398359 -0.00661841 -0.00396791 -0.0060538 -0.0047364 -0.00588129 -0.00454819 -0.0060538 -0.00454819 -0.010602 -0.010602 -0.005301 -0.0060538 -0.00453251 -0.0058656 -0.00398359 -0.0058656 -0.00396791 -0.00663409 -0.00398359 -0.00661841 -0.0032151 -0.00663409 -0.0034033 -0.00719869 -0.00266618 -0.00661841 -0.00263482 -0.00719869 -0.00189769 -0.00793581 -0.00189769 -0.00740258 -0.00131741 -0.00793581 -0.00133309 -0.0079515 -0.000752805 -0.0085161 0 -0.0153384 0.000564603 -0.00663409 0.000564603 -0.00738689 0.00133309 -0.00661841 0.00131741 -0.00663409 0.00133309 -0.00661841 0.00396791 -0.0126879 0.0026505 -0.00661841 0.0026505 -0.00606949 0.0026505 -0.0058656 0.00323079 -0.0060538 0.0034033 -0.005301 0.00396791 -0.0058656 0.00398359 -0.005301 0.00396791 -0.005301 0.00398359 -0.0047364 0.00453251 -0.0047364 0.0047364 -0.00454819 0.00454819 -0.00472071 0.010602 -0.0079515 0.005301 -0.00398359 0.005301 -0.00396791 0.0060538 -0.0034033 0.0058656 -0.0026505 0.00625769 -0.0028387 0.0060538 -0.0026505 0.0058656 -0.00189769 0.00663409 -0.0020859 0.00661841 -0.0020859 0.00663409 -0.00188201 0 0.100891 0.000564603 0.00133309 0.000564603 0.000564603 0.0020859 0.000752805 0.00377971 0.00152129 0.0179889 0 0.00133309 0.000564603 0.00131741 0.00133309 0 0.0469405 -0.00131741 -0.00133309 -0.0391929 0 -0.0026505 -0.00054892 -0.00133309 0 -0.000752805 -0.000768488 -0.00131741 -0.00131741 -0.000580287 -0.000752805 0 -0.00133309 -0.000564603 -0.0020859 0 -0.106773 -0.0079515 0.00396791 -0.00738689 0.00475208 -0.00718301 0.00528532 -0.00738689 0.005301 -0.00661841 0.00606949 -0.00606949 0.00661841 -0.005301 0.00738689 -0.005301 0.00719869 -0.00453251 0.00737121 -0.00398359 0.0079515 -0.0020859 0.00398359 -0.00131741 0.00454819 -0.0034033 0.0087043 -0.00210158 0.0087043 -0.00188201 0.00928459 -0.000564603 0.00472071 0 0.0047364 -0.000752805 0.00928459 0 0.0058656 0.000752805 0.0060538 0.000564603 0.005301 0.000752805 0.0058656 0.00133309 0.0060538 0.00131741 0.005301 0.00189769 0.00531668 0.000752805 0.00263482 0.00133309 0.0026505 0.00188201 0.005301 0.0020859 0.005301 0.005301 0.00984919 0.00663409 0.0085161 0.0032151 0.0047364 0.0034033 0.00454819 0.0079515 0.0079515 0.0079515 0.00738689 0.0047364 0.0034033 0.00454819 0.0032151 0.00926891 0.005301 0.005301 0.0026505 0.00454819 0.0026505 0.005301 0.00189769 0.005301 0.0020859 0.0058656 0.00131741 0.005301 0.00189769 0.005301 0.000564603 0.0060538 0.00133309 0 -0.0742297 -0.0272578 0 -0.0026505 -0.000564603 -0.000564603 -0.000752805 -0.00133309 0 -0.00131741 -0.00133309 -0.000564603 -0.000752805 0 -0.00131741 -0.000580287 -0.0020859 0 -0.0450585 0.000580287 0.000768488 0.000564603 0.000564603 0.0020859 0.00131741 0.00188201 0.000564603 0.0020859 0.000580287 0.0378598 0 0.00133309 0.000564603 0.00131741 0.00131741 0 0.0450585 0.0100374 0 0 -0.0437254 0.000564603 -0.00133309 0.000768488 -0.00131741 0.00131741 -0.000564603 0.0376716 0 0.0020859 -0.000580287 0.0020859 -0.000564603 0.00189769 -0.00131741 0.000941006 -0.00114489z"/>
 </g>
</svg>
