<?xml version="1.0" encoding="UTF-8"?>
<!DOCTYPE svg PUBLIC "-//W3C//DTD SVG 1.1//EN" "http://www.w3.org/Graphics/SVG/1.1/DTD/svg11.dtd">
<!-- Creator: CorelDRAW 2019 (64-Bit) -->
<svg xmlns="http://www.w3.org/2000/svg" xml:space="preserve" width="2.1248mm" height="2.1248mm" version="1.1" style="shape-rendering:geometricPrecision; text-rendering:geometricPrecision; image-rendering:optimizeQuality; fill-rule:evenodd; clip-rule:evenodd"
viewBox="0 0 4.62 4.62"
 xmlns:xlink="http://www.w3.org/1999/xlink">
 <defs>
  <style type="text/css">
   <![CDATA[
    .fil0 {fill:none}
    .fil1 {fill:#5FA776;fill-rule:nonzero}
    .fil2 {fill:#FF3204;fill-rule:nonzero}
   ]]>
  </style>
 </defs>
 <g id="图层_x0020_1">
  <metadata id="CorelCorpID_0Corel-Layer"/>
  <rect class="fil0" width="4.62" height="4.62"/>
  <g id="_1855984443392">
   <path class="fil1" d="M2.72 2.94l-0.82 0c-0.04,0 -0.08,0.03 -0.08,0.07l0 0.79c0,0.04 0.03,0.07 0.08,0.07l0.82 0c0.04,0 0.08,-0.03 0.08,-0.07l0 -0.79c0,-0.04 -0.03,-0.07 -0.08,-0.07z"/>
   <path class="fil2" d="M2.69 0.83c-0.03,-0.05 -0.08,-0.09 -0.14,-0.09l-0.48 0c-0.06,0 -0.11,0.03 -0.14,0.09l-1.5 2.9c-0.05,0.09 -0.01,0.15 0.08,0.15l0.48 0c0.07,0 0.1,-0.02 0.13,-0.08l1.19 -2.33 1.19 2.33c0.04,0.06 0.06,0.08 0.13,0.08l0.48 0c0.09,0 0.13,-0.06 0.08,-0.15l-1.5 -2.9z"/>
  </g>
 </g>
</svg>
