<?xml version="1.0" encoding="UTF-8"?>
<!DOCTYPE svg PUBLIC "-//W3C//DTD SVG 1.1//EN" "http://www.w3.org/Graphics/SVG/1.1/DTD/svg11.dtd">
<!-- Creator: CorelDRAW -->
<svg xmlns="http://www.w3.org/2000/svg" xml:space="preserve" width="2.1915mm" height="2.1915mm" style="shape-rendering:geometricPrecision; text-rendering:geometricPrecision; image-rendering:optimizeQuality; fill-rule:evenodd; clip-rule:evenodd"
viewBox="0 0 0.380163 0.380163"
 xmlns:xlink="http://www.w3.org/1999/xlink">
 <defs>
  <style type="text/css">
   <![CDATA[
    .fil0 {fill:none}
    .fil2 {fill:#CF0106}
    .fil1 {fill:#CF0106;fill-rule:nonzero}
   ]]>
  </style>
 </defs>
 <g id="图层_x0020_1">
  <metadata id="CorelCorpID_0Corel-Layer"/>
  <g id="_650810608">
   <rect id="_650806072" class="fil0" width="0.380163" height="0.380163"/>
   <g>
    <path id="_650806048" class="fil1" d="M0.0985318 0.203118l0 0.072407 0.0797448 0 0 -0.0235921 -0.0545221 0 0 -0.0268534 0.0536894 0 0 -0.0724243 -0.0536894 0 0 -0.0243901 0.0545221 0 0 -0.0236095 -0.0797448 0 0 0.072407 0.0537068 0 0 0.0244248 -0.0537068 0 0 0.00163063zm0.183082 0l0 0.072407 -0.0805602 0 0 -0.0235921 0.0545047 0 0 -0.0268534 -0.0536894 0 0 -0.0724243 0.0536894 0 0 -0.0243901 -0.0545047 0 0 -0.0236095 0.0797448 0 0 0.072407 -0.0537068 0 0 0.0244248 0.0545221 0 0 0.00163063z"/>
    <path id="_411249632" class="fil2" d="M0.190073 0.0162369c0.0960165,0 0.173853,0.0778367 0.173853,0.173853 0,0.0960165 -0.0778367,0.173853 -0.173853,0.173853 -0.0960165,0 -0.173853,-0.0778367 -0.173853,-0.173853 0,-0.0960165 0.0778367,-0.173853 0.173853,-0.173853zm0 0.0398117c0.0740376,0 0.134041,0.0600038 0.134041,0.134041 0,0.0740376 -0.0600038,0.134041 -0.134041,0.134041 -0.0740376,0 -0.134041,-0.0600038 -0.134041,-0.134041 0,-0.0740376 0.0600038,-0.134041 0.134041,-0.134041z"/>
   </g>
  </g>
 </g>
</svg>
