<?xml version="1.0" encoding="UTF-8"?>
<!DOCTYPE svg PUBLIC "-//W3C//DTD SVG 1.1//EN" "http://www.w3.org/Graphics/SVG/1.1/DTD/svg11.dtd">
<!-- Creator: CorelDRAW 2019 (64-Bit) -->
<svg xmlns="http://www.w3.org/2000/svg" xml:space="preserve" width="2.1248mm" height="2.1248mm" version="1.1" style="shape-rendering:geometricPrecision; text-rendering:geometricPrecision; image-rendering:optimizeQuality; fill-rule:evenodd; clip-rule:evenodd"
viewBox="0 0 4.87 4.87"
 xmlns:xlink="http://www.w3.org/1999/xlink">
 <defs>
  <style type="text/css">
   <![CDATA[
    .fil0 {fill:none}
    .fil1 {fill:#B80014;fill-rule:nonzero}
   ]]>
  </style>
 </defs>
 <g id="图层_x0020_1">
  <metadata id="CorelCorpID_0Corel-Layer"/>
  <rect class="fil0" width="4.87" height="4.87"/>
  <path class="fil1" d="M1.55 0.75c0.33,0.12 0.65,0.45 0.65,0.83l0 2.91c0.08,0 0.16,0.02 0.24,0.02 0.08,0 0.16,0 0.24,-0.02l0 -2.91c0,-0.37 0.31,-0.71 0.63,-0.83 0.04,-0.02 0.06,-0.04 0.06,-0.08 0,-0.04 -0.02,-0.08 -0.06,-0.1 -0.26,-0.12 -0.55,-0.2 -0.87,-0.2 -0.31,0 -0.61,0.08 -0.86,0.2 -0.04,0.02 -0.06,0.04 -0.06,0.1 -0.02,0.04 0,0.06 0.04,0.08zm0.33 3.68l0 -2.67c0,-0.29 -0.16,-0.53 -0.39,-0.63l0 3.15c0.12,0.08 0.26,0.12 0.39,0.16zm1.47 -0.16l0 -3.15c-0.24,0.1 -0.39,0.35 -0.39,0.63l0 2.67c0.14,-0.04 0.28,-0.08 0.39,-0.16zm-2.56 -2.2c0.02,0 0.04,0.02 0.04,0.04 0.04,0.12 0.14,0.22 0.26,0.22 0.04,0 0.08,-0.02 0.1,-0.04l0 -1.47c-0.51,0.37 -0.83,0.96 -0.83,1.63 0,0.67 0.31,1.26 0.81,1.63l0 -1.47c-0.02,-0.02 -0.06,-0.04 -0.1,-0.04 -0.12,0 -0.22,0.1 -0.26,0.22 0,0.02 -0.02,0.04 -0.04,0.04 -0.02,0 -0.02,-0.02 -0.04,-0.02 -0.08,-0.1 -0.12,-0.22 -0.12,-0.35 0,-0.14 0.04,-0.26 0.12,-0.35 0.02,0 0.04,-0.02 0.06,-0.02zm3.54 0.49c-0.12,0 -0.22,0.1 -0.26,0.22 0,0.02 -0.02,0.04 -0.04,0.04 -0.02,0 -0.02,-0.02 -0.04,-0.02 -0.06,-0.1 -0.1,-0.22 -0.1,-0.35 0,-0.14 0.04,-0.26 0.12,-0.35 0,0 0.02,-0.02 0.04,-0.02 0.02,0 0.04,0.02 0.04,0.04 0.04,0.12 0.14,0.22 0.26,0.22 0.06,0 0.12,-0.04 0.14,-0.1 -0.06,-0.57 -0.35,-1.06 -0.79,-1.4l0 3.24c0.41,-0.31 0.69,-0.79 0.77,-1.32l0 -0.08c-0.04,-0.08 -0.08,-0.12 -0.14,-0.12z"/>
 </g>
</svg>
