<svg xmlns="http://www.w3.org/2000/svg" width="34" height="30" viewBox="0 0 34 30">
  <g id="广发" transform="translate(0 -18.944)">
    <path id="路径_3844" data-name="路径 3844" d="M16.959,30.893a75.841,75.841,0,0,1-4.57,8.053A60.417,60.417,0,0,0,0,40.941a60.235,60.235,0,0,0,12.425-22h.009a66.769,66.769,0,0,0,4.525,11.949" transform="translate(0)" fill="#bd0016"/>
    <path id="路径_3845" data-name="路径 3845" d="M156.365,661.274a72.611,72.611,0,0,1,9.137.023,61.976,61.976,0,0,0,7.968,9.979,57.557,57.557,0,0,0-24.983-.039l-.007-.012.133-.134.131-.135.131-.136.131-.135.131-.139.131-.143.129-.137.131-.141.131-.141.129-.141.128-.141.129-.148.129-.141.129-.146.129-.148.129-.144.129-.146.126-.15.126-.146.126-.148.126-.15.128-.151.129-.149.124-.15a70.239,70.239,0,0,0,4.787-6.513" transform="translate(-143.977 -622.332)" fill="#730000"/>
    <path id="路径_3846" data-name="路径 3846" d="M563.841,38.963a75.545,75.545,0,0,1-4.566-8.068,63.673,63.673,0,0,0,4.483-11.95,60.114,60.114,0,0,0,12.558,22.037l-.007.012a63.1,63.1,0,0,0-12.468-2.031" transform="translate(-542.316)" fill="#e5001f"/>
    <path id="路径_3847" data-name="路径 3847" d="M709.916,666.112a63.126,63.126,0,0,1,12.468,2.031l-4.5,7.949a61.971,61.971,0,0,1-7.968-9.979" transform="translate(-688.39 -627.149)" fill="#bd0016"/>
    <path id="路径_3848" data-name="路径 3848" d="M12.389,665.429A65.046,65.046,0,0,1,4.5,675.38L0,667.43a60.42,60.42,0,0,1,12.389-2" transform="translate(0 -626.487)" fill="#e5001f"/>
    <path id="路径_3849" data-name="路径 3849" d="M419.118,19a63.491,63.491,0,0,1-4.485,11.947A66.479,66.479,0,0,1,410.112,19Z" transform="translate(-397.676 -0.055)" fill="#730000"/>
  </g>
</svg>
