<?xml version="1.0" encoding="UTF-8"?>
<!DOCTYPE svg PUBLIC "-//W3C//DTD SVG 1.1//EN" "http://www.w3.org/Graphics/SVG/1.1/DTD/svg11.dtd">
<!-- Creator: CorelDRAW -->
<svg xmlns="http://www.w3.org/2000/svg" xml:space="preserve" width="2.1915mm" height="2.1915mm" style="shape-rendering:geometricPrecision; text-rendering:geometricPrecision; image-rendering:optimizeQuality; fill-rule:evenodd; clip-rule:evenodd"
viewBox="0 0 0.267275 0.267275"
 xmlns:xlink="http://www.w3.org/1999/xlink">
 <defs>
  <style type="text/css">
   <![CDATA[
    .fil0 {fill:none}
    .fil1 {fill:#213D8C;fill-rule:nonzero}
   ]]>
  </style>
 </defs>
 <g id="图层_x0020_1">
  <metadata id="CorelCorpID_0Corel-Layer"/>
  <g id="_650809936">
   <rect id="_650808160" class="fil0" width="0.267275" height="0.267275"/>
   <path id="_409586864" class="fil1" d="M0.126143 0.0246115c0,0 0.0200136,-0.0150133 0.0550406,-0.00375637 0,0 0.0112691,0.00375637 0.0250262,0.0162573l0.0412835 0.0437837 -0.022526 0.022526 -0.0637973 -0.0650535c0,-0.00125619 -0.0100007,-0.0137571 -0.0350269,-0.0137571zm0.0913237 0.0850549l-0.0262702 0.0250262c0,0 -0.00375637,0.00625655 -0.00750054,0l-0.0487962 -0.04754c0,0 -0.00374417,-0.00625655 -0.00750054,-0.00124399l-0.048784 0.050028c0,0 -0.00375637,0.00501256 0.00124399,0.00751274l0.04754 0.04754c0,0 0.00375637,0.00624435 0.00750054,0.00124399l0.0487962 -0.0500402c0,0 0.00124399,-0.00374417 0.00875673,-0.00374417l0.050028 0c0,0 0.00250018,0.0512842 -0.0362709,0.0825548 0,0 -0.0500402,0.0500402 -0.120094,0.0200258 0,0 -0.0675537,-0.02377 -0.0662975,-0.110093 0,0 0.00124399,-0.0575407 0.0550406,-0.0888113 0,0 0.0387833,-0.0287826 0.0687977,-0.00751274l0.0738102 0.0750542z"/>
  </g>
 </g>
</svg>
