<?xml version="1.0" encoding="UTF-8"?>
<!DOCTYPE svg PUBLIC "-//W3C//DTD SVG 1.1//EN" "http://www.w3.org/Graphics/SVG/1.1/DTD/svg11.dtd">
<!-- Creator: CorelDRAW -->
<svg xmlns="http://www.w3.org/2000/svg" xml:space="preserve" width="2.1915mm" height="2.1915mm" style="shape-rendering:geometricPrecision; text-rendering:geometricPrecision; image-rendering:optimizeQuality; fill-rule:evenodd; clip-rule:evenodd"
viewBox="0 0 0.380163 0.380163"
 xmlns:xlink="http://www.w3.org/1999/xlink">
 <defs>
  <style type="text/css">
   <![CDATA[
    .fil0 {fill:none}
    .fil1 {fill:#CF0106;fill-rule:nonzero}
   ]]>
  </style>
 </defs>
 <g id="图层_x0020_1">
  <metadata id="CorelCorpID_0Corel-Layer"/>
  <g id="_650810104">
   <rect id="_649828800" class="fil0" width="0.380163" height="0.380163"/>
   <path id="_411248048" class="fil1" d="M0.365452 0.18244c-0.00239391,-0.061912 -0.0408005,-0.103961 -0.0408005,-0.103961 -0.0595181,-0.0694059 -0.135932,-0.0628834 -0.135932,-0.0628834 -0.0816877,-0.00249799 -0.131804,0.0590497 -0.131804,0.0590497 -0.0343647,0.0408005 -0.0382158,0.0783224 -0.0382158,0.0783224 -0.0152655,0.0631783 0.0165145,0.11751 0.0165145,0.11751 0.0237136,0.0428128 0.048572,0.0625885 0.0889909,0.0814102 0.0406097,0.0188043 0.102053,0.0162196 0.140252,-0.00287963 0.0382158,-0.0191166 0.0616344,-0.040124 0.0829541,-0.0800744 0.0212156,-0.0398291 0.018041,-0.0864929 0.018041,-0.0864929zm-0.193247 0.143339c0,0 -0.0641151,-0.00355617 -0.0993471,-0.0650865 0,0 -0.0304442,-0.0432985 -0.0178676,-0.0974563 0.0125767,-0.0541405 0.0420495,-0.0757377 0.0479128,-0.0813061 0.00584599,-0.00537762 0.043576,-0.0278422 0.0694059,-0.0274605l0 0.0644273 -0.0271656 0c0,0 -0.0369668,0.00220309 -0.0382158,0.0431077l0 0.0595181c0,0 0.000954093,0.0365678 0.0391699,0.0408005l0.0262115 0 0 0.0634559 -0.000104083 0zm-0.0219788 -0.101186c0,0 -0.00652253,0.00163063 -0.00749397,-0.00586334l0 -0.0570201c0,0 0.00097144,-0.00605415 0.00586334,-0.00605415l0.0800571 0c0,0 0.00681743,-0.00124899 0.00749397,0.00605415l0 0.0553894c0,0 0.00163063,0.00874296 -0.00480516,0.00749397l-0.0811153 0zm0.155708 0.0417546c-0.0259166,0.0394474 -0.0751652,0.0575925 -0.0981155,0.0595181l0 -0.0634559 0.0304442 0c0,0 0.0323351,-0.00652253 0.0343647,-0.040124l0 -0.0676886c0,0 -0.00510006,-0.0340698 -0.0410954,-0.0356137l-0.0237136 0 0 -0.06441c0,0 0.0404189,0.00317453 0.073257,0.0334106 0.03263,0.0301493 0.041078,0.0601946 0.0447209,0.0764142 0.00366025,0.0162196 0.00605415,0.0623977 -0.0198625,0.101949z"/>
  </g>
 </g>
</svg>
