<?xml version="1.0" encoding="UTF-8"?>
<!DOCTYPE svg PUBLIC "-//W3C//DTD SVG 1.1//EN" "http://www.w3.org/Graphics/SVG/1.1/DTD/svg11.dtd">
<!-- Creator: CorelDRAW -->
<svg xmlns="http://www.w3.org/2000/svg" xml:space="preserve" width="2.1915mm" height="2.1915mm" style="shape-rendering:geometricPrecision; text-rendering:geometricPrecision; image-rendering:optimizeQuality; fill-rule:evenodd; clip-rule:evenodd"
viewBox="0 0 0.267008 0.267008"
 xmlns:xlink="http://www.w3.org/1999/xlink">
 <defs>
  <style type="text/css">
   <![CDATA[
    .fil0 {fill:none}
    .fil1 {fill:#FAC10D;fill-rule:nonzero}
    .fil2 {fill:#5C1C81;fill-rule:nonzero}
   ]]>
  </style>
 </defs>
 <g id="图层_x0020_1">
  <metadata id="CorelCorpID_0Corel-Layer"/>
  <g id="_650810944">
   <rect id="_650808184" class="fil0" width="0.267008" height="0.267008"/>
   <g>
    <path id="_649830312" class="fil1" d="M0.00856521 0.0782687l0.0560333 0c0,0 0.0105999,0 0.0128783,0.00303377l-0.0105999 0 0 0.00302158 0.0158999 0c0,0 0.00226619,0.00152297 0.00226619,0.00303377l-0.0189336 0 0 0.00303377 0.0204566 0c0,0 0.00226619,0.00151079 0.00151079,0.00377698l-0.0628562 0 0 0.00303377 0.0651224 0c0,0 0.000755396,0.00226619 0.000755396,0.00303377l-0.0658778 0 0 0.00302158 0.0658778 0c0,0 0.000767579,0.00227837 -0.000755396,0.00303377l-0.0651224 0.000755396 0 0.00303377 0.064367 -0.000767579c0,0 0,0.00227837 -0.00151079,0.00303377l-0.0628562 0.000755396 0 0.00454456 0.0605779 -0.000755396c0,0 0,0.00303377 -0.00226619,0.00378916l-0.0583117 0 0 0.00302158 0.0530117 -0.000755396c0,0 -0.00151079,0.00378916 -0.00908911,0.00378916l-0.00984451 0 0 0.00302158 0.0158999 0c0,0 0.00682293,0 0.00757832,0.00303377l-0.0242336 0.000755396 0 0.00303377 0.0280227 0c0,0 0.00226619,0.00226619 0.00226619,0.00302158l-0.0651224 0.000767579 0 0.00377698 0.0658778 -0.000755396c0,0 0.00227837,0.00151079 0.00227837,0.00378916l-0.0666454 0.000755396 0 0.00303377 0.069667 0c0,0 0.000755396,0.000755396 0.000755396,0.00302158l-0.0704224 0.000755396 0 0.00303377 0.0704224 0c0,0 0.000755396,0.00151079 0,0.00302158l-0.0704224 0.000767579 0 0.00302158 0.069667 0c0,0 0.000755396,0.00227837 -0.000755396,0.00378916l-0.0689116 0 0 0.00226619 0.0674008 0c0,0 0,0.00303377 -0.00152297,0.00303377l-0.023466 0 0 0.00303377 0.0204444 0c0,0 -0.00151079,0.00302158 -0.00303377,0.00377698l-0.018166 0 0 0.00303377 0.0121107 0c0,0 -0.00151079,0.00378916 -0.0174106,0.00303377l-0.0530117 0 0 -0.10829z"/>
    <path id="_649830936" class="fil2" d="M0.152432 0.132036l0.0151445 0 0 0.00605535c0,0 0.00833372,-0.00833372 0.0151445,-0.00756614 0,0 0.0158999,-0.00303377 0.019689,0.0158999l0.000755396 0.0408888 -0.0151445 0 0 -0.0371119c0,0 -0.00454456,-0.0105999 -0.0151445,-0.00377698 0,0 -0.00454456,0.00151079 -0.00377698,0.0143769l0 0.0265119 -0.0151445 0 -0.00152297 -0.0552779zm0.0545225 -0.0219552l0.0136337 0 0.000755396 0.0416442 0.0166553 -0.0219674 0.0174228 0 -0.015912 0.0219674 0.0189336 0.0348335 -0.0174106 0.000755396 -0.0121229 -0.0227228 -0.00756614 0.00984451 0 0.0121229 -0.0151445 0 0.000755396 -0.0764777zm-0.0590671 0.0711778l-0.000755396 -0.0363565c-0.000755396,-0.0189214 -0.0317997,-0.0128661 -0.0317997,-0.0128661 -0.0166553,0.00226619 -0.0151445,0.0174106 -0.0151445,0.0174106l0.0158999 0.000755396c0.000755396,-0.00907693 0.0136337,-0.00605535 0.0136337,-0.00605535 0.00908911,0.00757832 -0.00151079,0.00908911 -0.00151079,0.00908911 -0.00454456,0 -0.0204444,0.00454456 -0.0204444,0.00454456 -0.00984451,0.00378916 -0.00908911,0.0136337 -0.00908911,0.0136337 0,0.0158999 0.0136215,0.0166553 0.0136215,0.0166553 0.0128783,0.00302158 0.021212,-0.00529995 0.021212,-0.00529995l0.000755396 0.00529995 0.0158999 -0.000755396 -0.00227837 -0.00605535zm-0.0158999 -0.0154491c0,0 -0.000901601,0.00635994 -0.00605535,0.00953991 -0.00514156,0.00317997 -0.0119645,0.00423996 -0.0136337,-0.00227837 0,0 -0.00151079,-0.00454456 0.00303377,-0.00605535 0.000755396,0 0.0158999,-0.00378916 0.0166553,-0.00605535l0 0.00484915z"/>
   </g>
  </g>
 </g>
</svg>
