<?xml version="1.0" encoding="UTF-8"?>
<!DOCTYPE svg PUBLIC "-//W3C//DTD SVG 1.1//EN" "http://www.w3.org/Graphics/SVG/1.1/DTD/svg11.dtd">
<!-- Creator: CorelDRAW -->
<svg xmlns="http://www.w3.org/2000/svg" xml:space="preserve" width="2.1915mm" height="2.1915mm" style="shape-rendering:geometricPrecision; text-rendering:geometricPrecision; image-rendering:optimizeQuality; fill-rule:evenodd; clip-rule:evenodd"
viewBox="0 0 0.268726 0.268726"
 xmlns:xlink="http://www.w3.org/1999/xlink">
 <defs>
  <style type="text/css">
   <![CDATA[
    .fil0 {fill:none}
    .fil1 {fill:#467D44;fill-rule:nonzero}
   ]]>
  </style>
 </defs>
 <g id="图层_x0020_1">
  <metadata id="CorelCorpID_0Corel-Layer"/>
  <g id="_650810464">
   <rect id="_650808712" class="fil0" width="0.268726" height="0.268726"/>
   <path id="_409599584" class="fil1" d="M0.0360754 0.147735l-0.00116491 0.00659706 0.0348982 0 0.00154504 -0.00659706 -0.0352783 0zm0.0887783 0.00659706l0.00116491 -0.00659706 -0.0395456 0 -0.0015573 0.00659706 0.039938 0zm0.0220965 -0.0333409l-0.00543215 0.0267439 -0.00154504 0.00659706 -0.00543215 0.0267439 -0.055045 0 -0.00116491 0.00620467 0.064352 0 0.00853449 -0.0395456 0.00543215 -0.0267439 0.0771415 0 -0.00581228 0.0267439 -0.0616421 0 -0.0139666 0.0663017 -0.0798514 0 -0.00116491 0.00619241 0.0895508 0 0.00852223 -0.0391532 0.00543215 -0.0267439 0.0519549 0 -0.00543215 0.0267439 -0.0368356 0 -0.00812984 0.0391532 -0.00582454 0.0267561 -0.12017 0 0.0139544 -0.0658971 -0.0503976 0 0.00581228 -0.0267561 0.00116491 -0.0065848 0.00581228 -0.0267561 0.0500175 0 0.0139544 -0.0658971 0.055045 0 0.00697719 -0.0333409 0.10196 0 -0.00581228 0.0267439 -0.0868409 0 -0.00116491 0.00659706 -0.00543215 0.0267439 -0.055045 0 -0.00154504 0.00620467 0.0647321 0 0.00116491 -0.00620467 0.00582454 -0.0267439 0.0771415 0 -0.00581228 0.0267439 -0.0616543 0 -0.00696493 0.0329608 -0.0798637 0 -0.00154504 0.00620467 0.055045 0 0 -1.22622e-005z"/>
  </g>
 </g>
</svg>
