<?xml version="1.0" encoding="UTF-8"?>
<!DOCTYPE svg PUBLIC "-//W3C//DTD SVG 1.1//EN" "http://www.w3.org/Graphics/SVG/1.1/DTD/svg11.dtd">
<!-- Creator: CorelDRAW 2019 (64-Bit) -->
<svg xmlns="http://www.w3.org/2000/svg" xml:space="preserve" width="2.1248mm" height="2.1248mm" version="1.1" style="shape-rendering:geometricPrecision; text-rendering:geometricPrecision; image-rendering:optimizeQuality; fill-rule:evenodd; clip-rule:evenodd"
viewBox="0 0 4.38 4.38"
 xmlns:xlink="http://www.w3.org/1999/xlink">
 <defs>
  <style type="text/css">
   <![CDATA[
    .fil0 {fill:none}
    .fil1 {fill:#C40016;fill-rule:nonzero}
   ]]>
  </style>
 </defs>
 <g id="图层_x0020_1">
  <metadata id="CorelCorpID_0Corel-Layer"/>
  <rect class="fil0" width="4.38" height="4.38"/>
  <path class="fil1" d="M3.24 1.86l0.78 0c0,-0.04 -0.02,-0.05 -0.02,-0.09l-0.8 0 0.04 0.09zm0.43 1.1l-0.39 0.55 -2.18 0 -0.39 -0.57 0.98 -2.4 0.51 1.28 0.55 -1.28 0.44 1.12 0.82 0c-0.23,-0.76 -0.94,-1.33 -1.78,-1.33 -1.05,0.02 -1.88,0.83 -1.88,1.86 0,1.03 0.83,1.85 1.85,1.85 0.8,0 1.49,-0.51 1.74,-1.22l-0.32 0 0.05 0.14zm-1.63 -0.04l-0.53 -1.26 -0.51 1.28 2.06 0.02 -0.51 -1.3 -0.5 1.26zm1.26 -0.89l0.75 0c0,-0.04 0,-0.05 -0.02,-0.09l-0.76 0 0.04 0.09zm0.14 0.35l0.6 0 0 -0.09 -0.64 0 0.04 0.09zm0.6 -0.27l-0.71 0 0.04 0.09 0.67 0 0 -0.09zm-0.46 0.6l0.39 0c0,-0.04 0.02,-0.05 0.02,-0.09l-0.44 0 0.04 0.09zm-0.07 -0.18l0.5 0c0,-0.04 0.02,-0.05 0.02,-0.09l-0.55 0 0.04 0.09z"/>
 </g>
</svg>
