<svg xmlns="http://www.w3.org/2000/svg" width="30" height="29.984" viewBox="0 0 30 29.984">
  <path id="广州" d="M11.07,25.815s-6.057-.276-5.947-8.1c0,0-.22-4.846,5.947-6.278l.937,4.3s-2.974,4.681-.716,9.748l-.059.243-.162.087ZM13.439,14.2a9.79,9.79,0,0,1,5.167-2.633,7,7,0,0,1,3.92.375S25,9.9,26,10.285c0,0,.716-.331.11-1.047a5.851,5.851,0,0,0-1.929-2.456A7.169,7.169,0,0,0,13.659,9.074a8.235,8.235,0,0,0-.88,4.516l.24.556s.462.1.42.05Zm11.276-1.677a4.714,4.714,0,0,1,4-.9c1.342.236,3.14,0,5.341,3.6,0,0,3.2,5.555-1.475,8.8,0,0-1.18-1.967-2.015-2.36s-.885-1.229-1.032-2.409-1.966-5.26-4.523-6.292l-.222-.053-.073-.39ZM23.389,30.492l-.167.2V31c.235.469-1.611,3.187-1.611,3.187l.973.57a4.791,4.791,0,0,0,3.525.54,6.584,6.584,0,0,0,3.882-1.73A7.865,7.865,0,0,0,31.321,31.8a5.412,5.412,0,0,0,.727-1.977c.57-5.1-2.45-6.644-2.45-6.644a9.416,9.416,0,0,1-6.207,7.315ZM8.464,26.638s2.941,1.117,3.834.633a10.3,10.3,0,0,0,9.231,3.908s-1.615,3.808-5.454,4.125c-1.5.125-3.9.124-5.564-1.668a6.972,6.972,0,0,1-2.345-5.844l.112-.819.186-.335Zm4.4-1.844,7.021-6.863,3.31,3.09.828-.773-.306-5.5c-.761-1.36-1.993-1.227-2.965-1.4a8.466,8.466,0,0,0-5.935,1.568c-4.766,4.191-1.953,9.876-1.953,9.876Zm14.141-6.956L19.986,24.7l-3.311-3.09-.441.608-.08,5.668c.762,1.36,1.994,1.227,2.965,1.4a8.462,8.462,0,0,0,5.935-1.568c4.765-4.191,1.952-9.876,1.952-9.876Z" transform="translate(-5.121 -5.392)" fill="#bb001c"/>
</svg>
