<?xml version="1.0" encoding="UTF-8"?>
<!DOCTYPE svg PUBLIC "-//W3C//DTD SVG 1.1//EN" "http://www.w3.org/Graphics/SVG/1.1/DTD/svg11.dtd">
<!-- Creator: CorelDRAW 2019 (64-Bit) -->
<svg xmlns="http://www.w3.org/2000/svg" xml:space="preserve" width="2.1915mm" height="2.1915mm" version="1.1" style="shape-rendering:geometricPrecision; text-rendering:geometricPrecision; image-rendering:optimizeQuality; fill-rule:evenodd; clip-rule:evenodd"
viewBox="0 0 38.02 38.02"
 xmlns:xlink="http://www.w3.org/1999/xlink">
 <defs>
  <style type="text/css">
   <![CDATA[
    .fil0 {fill:none}
    .fil1 {fill:#0055B8}
    .fil2 {fill:#009944}
   ]]>
  </style>
 </defs>
 <g id="图层_x0020_1">
  <metadata id="CorelCorpID_0Corel-Layer"/>
  <g id="_2454234746736">
   <g>
    <rect class="fil0" x="-0" y="-0" width="38.02" height="38.02"/>
   </g>
   <g>
    <path class="fil1" d="M23.05 15.95l4.59 -2.1 -8.63 -3.88 -8.63 3.88 8.57 3.86 0.06 0.01c6.48,0 11.74,2.91 11.74,6.49 0,3.58 -5.26,6.5 -11.74,6.5 -6.48,0 -11.74,-2.91 -11.74,-6.5l0 -0.15 -6 0 0 0.15c0,4.84 7.96,8.77 17.75,8.77 9.79,0 17.75,-3.93 17.75,-8.77 0,-4.04 -5.85,-7.27 -13.71,-8.26l0 -0zm-4.04 -0.52l-3.51 -1.58 3.51 -1.58 3.51 1.58 -3.51 1.58z"/>
    <path class="fil2" d="M19.01 5.04c-9.79,0 -17.75,3.93 -17.75,8.77 0,4.04 5.85,7.27 13.71,8.26l-4.59 2.1 8.63 3.87 8.63 -3.87 -8.57 -3.86 -0.06 -0.01c-6.48,0 -11.74,-2.91 -11.74,-6.49 0,-3.58 5.27,-6.49 11.74,-6.49 6.48,0 11.74,2.92 11.74,6.49l0 0.15 6.01 0 0 -0.15c0,-4.84 -7.96,-8.77 -17.75,-8.77zm0 17.55l3.51 1.58 -3.51 1.58 -3.51 -1.58 3.51 -1.58z"/>
   </g>
  </g>
 </g>
</svg>
