<?xml version="1.0" encoding="UTF-8"?>
<!DOCTYPE svg PUBLIC "-//W3C//DTD SVG 1.1//EN" "http://www.w3.org/Graphics/SVG/1.1/DTD/svg11.dtd">
<!-- Creator: CorelDRAW 2019 (64-Bit) -->
<svg xmlns="http://www.w3.org/2000/svg" xml:space="preserve" width="2.1248mm" height="2.1248mm" version="1.1" style="shape-rendering:geometricPrecision; text-rendering:geometricPrecision; image-rendering:optimizeQuality; fill-rule:evenodd; clip-rule:evenodd"
viewBox="0 0 5.16 5.16"
 xmlns:xlink="http://www.w3.org/1999/xlink">
 <defs>
  <style type="text/css">
   <![CDATA[
    .fil0 {fill:none}
    .fil1 {fill:#C50016;fill-rule:nonzero}
   ]]>
  </style>
 </defs>
 <g id="图层_x0020_1">
  <metadata id="CorelCorpID_0Corel-Layer"/>
  <g id="_1856990199584">
   <rect class="fil0" width="5.16" height="5.16"/>
   <path class="fil1" d="M4.69 1.27l-0.17 -0.22c0,0 -0.63,0.11 -0.61,-0.26 0,0 0.04,-0.26 -0.42,-0.15 0,0 -0.11,-0.11 -0.11,-0.15 0,0 0.02,-0.15 -0.46,-0.07 0,0 -0.74,0.09 -1.55,1.01 0,0 -0.81,0.68 -0.81,-0.02 0,0 -0.44,0.46 -0.2,0.81 0,0 0.26,0.37 0.79,0.07 0,0 -0.15,1.25 0.68,1.9 0,0 0.87,0.81 1.86,0.52 0,0 0.83,-0.17 1.16,-1.01 0,0 -0.15,0.15 -0.22,0.13 0,0 0.22,-0.26 0.24,-0.39 0,0 0,-0.15 -0.13,0.09 0,0 0.02,-0.15 -0.07,-0.09 0,0 -0.44,0.5 -0.63,0.55 0,0 -1.4,0.83 -2.03,-0.83 0,0 -0.26,-0.79 0.37,-1.38 0.63,-0.59 1.27,-0.52 1.84,-0.11 0,0 0.28,-0.33 0.42,-0.26 0,0.02 0.11,-0.04 0.07,-0.13zm-1.95 2.03l1.38 0 0 -1.05 -1.38 0 0 1.05z"/>
  </g>
 </g>
</svg>
