<?xml version="1.0" encoding="UTF-8"?>
<!DOCTYPE svg PUBLIC "-//W3C//DTD SVG 1.1//EN" "http://www.w3.org/Graphics/SVG/1.1/DTD/svg11.dtd">
<!-- Creator: CorelDRAW 2019 (64-Bit) -->
<svg xmlns="http://www.w3.org/2000/svg" xml:space="preserve" width="2.1248mm" height="2.1248mm" version="1.1" style="shape-rendering:geometricPrecision; text-rendering:geometricPrecision; image-rendering:optimizeQuality; fill-rule:evenodd; clip-rule:evenodd"
viewBox="0 0 4.39 4.39"
 xmlns:xlink="http://www.w3.org/1999/xlink">
 <defs>
  <style type="text/css">
   <![CDATA[
    .fil0 {fill:none}
    .fil1 {fill:#01458C;fill-rule:nonzero}
   ]]>
  </style>
 </defs>
 <g id="图层_x0020_1">
  <metadata id="CorelCorpID_0Corel-Layer"/>
  <rect class="fil0" width="4.39" height="4.39"/>
  <path class="fil1" d="M4.17 2.2c0,-0.5 -0.68,-0.92 -1.53,-0.92 -0.68,0 -1.25,0.27 -1.45,0.62 -0.01,0.03 -0.03,0.07 -0.03,0.1 0,0.09 0.06,0.18 0.15,0.22l0.77 0.45c0.04,0.01 0.09,0.03 0.13,0.03 0.04,0 0.1,-0.01 0.13,-0.03l0.74 -0.43c0.04,-0.03 0.07,-0.07 0.07,-0.12 0,-0.04 -0.03,-0.09 -0.07,-0.12l-0.27 -0.16 -0.61 0.36 -0.46 -0.27c0.18,-0.16 0.5,-0.27 0.89,-0.27 0.56,0 1.02,0.24 1.02,0.53 -0.01,0.46 -0.68,0.82 -1.5,0.79 -0.82,-0.01 -1.47,-0.42 -1.45,-0.88 0,-0.61 0.8,-1.08 1.77,-1.08 0.09,0 0.18,0 0.25,0.01 -0.19,-0.07 -0.45,-0.12 -0.73,-0.12 -0.22,0 -0.42,0.03 -0.59,0.07 -0.7,0.24 -1.19,0.68 -1.19,1.2 0,0.7 0.89,1.26 1.97,1.26 1.1,0.01 1.97,-0.55 1.97,-1.26z"/>
 </g>
</svg>
